<svg xmlns="http://www.w3.org/2000/svg" width="216" height="132" viewBox="0 0 216 132" id="emberconf-logo" aria-label="Virtual EmberConf 2022">
  <g fill="none" fill-rule="evenodd">
    <path fill="#E04E39" d="M131.076 0L0 51.156l5.083 51.824 145.675 28.179 65.224-31.87-12.161-42.68z"></path>
    <path fill="#FEFEFE" d="M104.899 100.768v8.418l-33.689-8.418h33.689zm86.022 0l-32.897 8.22v-8.22h32.897zm-53.766-25.126s-.774-2.748 2.114-8.032c2.888-5.285 5.145-2.396 5.145-2.396s2.464 2.678-.353 6.695c-2.819 4.013-6.906 3.733-6.906 3.733m-22.192 3.803c-3.312 8.669-11.343 5.144-11.343 5.144s-.916-3.1 1.691-11.766c2.606-8.664 8.736-5.285 8.736-5.285s4.227 3.243.916 11.907m-5.989-36.283s5.004-13.034 6.201-6.691c1.195 6.339-10.499 25.22-10.499 25.22.141-4.226 4.298-18.53 4.298-18.53m-71.51 32.48c.211-8.383 5.706-12.047 7.61-10.214 1.902 1.83 1.196 5.776-2.397 8.242-3.592 2.466-5.214 1.973-5.214 1.973M189.01 74.25c-.283-2.821-2.818-1.77-2.818-1.77s-4.087 3.166-7.68 2.815c-3.59-.353-2.464-8.388-2.464-8.388s.773-7.361-1.34-7.98c-2.114-.616-4.72 1.92-4.72 1.92s-3.24 3.593-4.792 8.17l-.423.143s.495-8.032-.068-9.865c-.424-.915-4.299-.844-4.933.776-.633 1.62-3.735 12.894-3.946 17.614 0 0-6.059 5.144-11.342 5.988-5.282.847-6.552-2.466-6.552-2.466s14.371-4.016 13.878-15.5c-.493-11.484-11.588-7.237-12.845-6.293-1.214.915-7.702 4.825-9.593 15.658-.064.369-.177 1.979-.177 1.979s-5.565 3.734-8.665 4.72c0 0 8.665-14.586-1.902-21.206-4.11-2.508-7.09 1.35-7.075 1.331 3.594-4.566 12.133-16.835 9.61-27.54-1.507-6.407-4.713-7.097-7.654-6.061-4.465 1.763-6.154 4.37-6.154 4.37s-5.777 8.384-7.116 20.855c-1.339 12.469-3.312 27.547-3.312 27.547s-2.747 2.678-5.284 2.816c-2.536.14-1.408-7.54-1.408-7.54s1.972-11.693 1.832-13.664c-.142-1.975-.284-3.031-2.608-3.736-2.324-.704-4.86 2.256-4.86 2.256S77.904 71.34 77.34 72.894l-.353.635-.352-.422s4.72-13.812.212-14.023c-4.51-.21-7.469 4.933-7.469 4.933s-5.143 8.595-5.355 9.583l-.35-.425s2.111-10.004 1.69-12.471c-.423-2.465-2.748-1.971-2.748-1.971s-2.96-.353-3.735 1.55c-.774 1.9-3.592 14.513-3.945 18.528 0 0-7.397 5.287-12.259 5.355-4.86.07-4.367-3.084-4.367-3.084s17.824-6.1 12.963-18.148c-2.184-3.1-4.722-4.074-8.314-4.004-3.593.07-8.017 2.26-10.906 8.744-1.377 3.095-1.846 6.026-2.127 8.247 0 0-3.156.634-4.848-.773-1.69-1.407-2.578 0-2.578 0s-2.912 3.127-.022 4.256c2.89 1.128 7.388 1.076 7.388 1.076h-.002c.415 3 1.62 5.899 5.138 8.573 5.282 4.014 15.427-.088 15.427-.088l4.156-2.186s.14 3.885 3.17 4.443c3.03.556 4.298.027 9.583-12.794 3.098-6.555 3.31-6.187 3.31-6.187l.353-.06s-2.397 12.545-1.48 15.927c.915 3.38 4.93 3.03 4.93 3.03s2.185.004 3.945-6.196c1.762-6.2 5.144-13.462 5.144-13.462h.423s-1.479 13.253.775 17.336c2.255 4.085 8.102 1.583 8.102 1.583s4.086-1.952 4.721-2.588c0 0 4.85 4.178 11.691 3.433 15.293-3.01 20.731-7.047 20.731-7.047s2.63 6.67 10.765 7.286c9.302.703 14.373-5.137 14.373-5.137s-.07 3.807 3.171 5.147c3.242 1.338 5.424-6.121 5.424-6.121l5.424-14.892h.495s.282 9.665 5.637 11.215c5.352 1.55 12.328-3.664 12.328-3.664s1.692-.964 1.41-3.781"></path>
    <path fill="#FEFEFE" d="M68.607 36.137c2.698.281 4.18 1.77 4.45 4.468v6.542c-.27 2.698-1.752 4.16-4.45 4.389-2.71-.242-4.186-1.705-4.428-4.389v-6.542c.242-2.697 1.718-4.187 4.428-4.468zm-10.691-.001c2.697.283 4.173 1.772 4.43 4.47-.014.375-.041.744-.082 1.106-.188.51-.456.966-.805 1.369a543.804 543.804 0 01-4.106 5.617h4.207c.496.067.792.335.886.805v1.046c-.094.51-.396.792-.906.846h-7.086c-.51-.054-.792-.335-.845-.846v-1.046c0-.148.04-.283.12-.403 2-2.523 3.946-5.12 5.838-7.79 0-.295.007-.583.02-.866-.2-.912-.758-1.402-1.671-1.47-1.06.095-1.63.672-1.71 1.732v.765c-.068.51-.356.792-.866.846h-1.026c-.524-.069-.792-.356-.806-.866v-.846c.214-2.71 1.684-4.2 4.408-4.47zm21.34 0c2.698.283 4.174 1.772 4.43 4.47-.014.375-.04.744-.081 1.106-.189.51-.457.966-.806 1.369a543.804 543.804 0 01-4.106 5.617H82.9c.496.067.792.335.886.805v1.046c-.094.51-.395.792-.906.846h-7.086c-.51-.054-.792-.335-.844-.846v-1.046c0-.148.039-.283.12-.403 2-2.523 3.945-5.12 5.837-7.79 0-.295.007-.583.02-.866-.2-.912-.758-1.402-1.67-1.47-1.06.095-1.631.672-1.711 1.732v.765c-.067.51-.356.792-.866.846h-1.026c-.524-.069-.792-.356-.805-.866v-.846c.214-2.71 1.683-4.2 4.407-4.47zm10.663 0c2.697.283 4.173 1.772 4.429 4.47-.014.375-.04.744-.08 1.106-.19.51-.457.966-.806 1.369a543.804 543.804 0 01-4.106 5.617h4.207c.496.067.792.335.886.805v1.046c-.094.51-.396.792-.906.846h-7.086c-.51-.054-.792-.335-.845-.846v-1.046c0-.148.04-.283.12-.403 2-2.523 3.946-5.12 5.838-7.79 0-.295.007-.583.02-.866-.2-.912-.758-1.402-1.671-1.47-1.06.095-1.63.672-1.71 1.732v.765c-.068.51-.356.792-.866.846h-1.027c-.523-.069-.791-.356-.805-.866v-.846c.214-2.71 1.684-4.2 4.408-4.47zm-21.312 2.838c-1.06.121-1.637.705-1.73 1.752v6.441c.106 1.047.684 1.618 1.73 1.71 1.048-.092 1.624-.663 1.732-1.71v-6.44c-.108-1.06-.684-1.645-1.732-1.753zm47.345 58.386c2.685.283 4.167 1.778 4.449 4.489v.847c-.094.496-.382.784-.866.864h-1.067c-.51-.052-.798-.335-.865-.845v-.804c-.095-1.007-.644-1.572-1.651-1.692-1.06.12-1.637.685-1.731 1.692v6.46c.094 1.048.671 1.618 1.73 1.713 1.008-.095 1.557-.665 1.652-1.713v-.864c.067-.51.37-.791.906-.847h.987c.509.069.81.35.905.847v.864c-.31 2.685-1.792 4.148-4.45 4.389-2.71-.214-4.174-1.678-4.388-4.389v-6.522c.202-2.711 1.665-4.206 4.389-4.489zm10.649 0c2.698.269 4.181 1.752 4.45 4.45v6.562c-.282 2.684-1.766 4.147-4.45 4.388-2.683-.255-4.153-1.717-4.408-4.388v-6.562c.228-2.698 1.698-4.181 4.408-4.45zm25.458.16c.495.083.784.372.866.867v1.047c-.082.537-.377.82-.886.845h-4.792c-.268.026-.416.176-.443.443v2.597c.027.269.175.409.443.424h3.04c.496.067.773.342.826.823v1.088c-.053.525-.336.792-.846.806h-3.02c-.268.04-.416.196-.443.463v4.85c-.04.51-.315.794-.826.847h-1.026c-.482-.026-.752-.275-.805-.746V98.368c.013-.47.248-.754.705-.847h7.207zm-18.383.022h1.269c.537-.041.933.195 1.187.703a421.715 421.715 0 002.959 7.169v-7.026c.054-.497.336-.778.847-.846h1.046c.47.039.75.294.845.765v9.863a358.29 358.29 0 00-.02 3.604v.1c-.013.471-.255.706-.725.706h-1.287c-.552.027-.934-.208-1.15-.706a808.492 808.492 0 01-2.978-7.086v6.947c-.053.522-.335.804-.846.845h-1.026c-.483-.041-.752-.297-.805-.766V98.086c.026-.404.255-.585.684-.544zm-7.075 2.636c-1.046.108-1.617.679-1.71 1.712v6.5c.093 1.048.664 1.607 1.71 1.674 1.047-.067 1.623-.626 1.732-1.673v-6.5c-.109-1.048-.685-1.619-1.732-1.713z"></path>
  </g>
</svg>
